<svg xmlns="http://www.w3.org/2000/svg" xmlns:xlink="http://www.w3.org/1999/xlink" width="500" zoomAndPan="magnify" viewBox="0 0 375 374.999991" height="500" preserveAspectRatio="xMidYMid meet" version="1.0"><defs><clipPath id="29b2fcfe5a"><path d="M 11.945312 10.09375 L 184.878906 10.09375 L 184.878906 197.59375 L 11.945312 197.59375 Z M 11.945312 10.09375 " clip-rule="nonzero"/></clipPath><clipPath id="715c36d5c9"><path d="M 59.792969 56.609375 L 187.710938 56.609375 L 187.710938 192.359375 L 59.792969 192.359375 Z M 59.792969 56.609375 " clip-rule="nonzero"/></clipPath><clipPath id="581fa8eea1"><path d="M 11.820312 192.511719 L 143.535156 192.511719 L 143.535156 227.660156 L 11.820312 227.660156 Z M 11.820312 192.511719 " clip-rule="nonzero"/></clipPath><clipPath id="1ba07e9cab"><path d="M 23.199219 234.835938 L 106.648438 234.835938 L 106.648438 269.984375 L 23.199219 269.984375 Z M 23.199219 234.835938 " clip-rule="nonzero"/></clipPath><clipPath id="e6a661ccb0"><path d="M 261.199219 234.835938 L 352.722656 234.835938 L 352.722656 273.726562 L 261.199219 273.726562 Z M 261.199219 234.835938 " clip-rule="nonzero"/></clipPath><clipPath id="4a271b3e2d"><path d="M 300.738281 277.484375 L 331.058594 277.484375 L 331.058594 302.222656 L 300.738281 302.222656 Z M 300.738281 277.484375 " clip-rule="nonzero"/></clipPath><clipPath id="9ad219f8c5"><path d="M 168 248 L 269 248 L 269 370 L 168 370 Z M 168 248 " clip-rule="nonzero"/></clipPath><clipPath id="f08b967c78"><path d="M 212.625 248.804688 L 268.949219 342.882812 L 225.066406 369.15625 L 168.742188 275.078125 Z M 212.625 248.804688 " clip-rule="nonzero"/></clipPath><clipPath id="13115de9d7"><path d="M 178 192 L 321 192 L 321 342 L 178 342 Z M 178 192 " clip-rule="nonzero"/></clipPath><clipPath id="a6363c0e9b"><path d="M 178.925781 226.761719 L 216.777344 192.511719 L 320.726562 307.378906 L 282.871094 341.632812 Z M 178.925781 226.761719 " clip-rule="nonzero"/></clipPath><clipPath id="e7431bc1d0"><path d="M 106 106.15625 L 268.613281 106.15625 L 268.613281 187.15625 L 106 187.15625 Z M 106 106.15625 " clip-rule="nonzero"/></clipPath><clipPath id="628724c0fe"><path d="M 190.832031 2.25 L 362.582031 2.25 L 362.582031 189 L 190.832031 189 Z M 190.832031 2.25 " clip-rule="nonzero"/></clipPath><clipPath id="b9229dfff0"><path d="M 180.863281 50 L 319.183594 50 L 319.183594 196.976562 L 180.863281 196.976562 Z M 180.863281 50 " clip-rule="nonzero"/></clipPath><clipPath id="2a873cafc0"><path d="M 233.355469 192.511719 L 362.625 192.511719 L 362.625 234.835938 L 233.355469 234.835938 Z M 233.355469 192.511719 " clip-rule="nonzero"/></clipPath><clipPath id="19f6189809"><path d="M 41.863281 277.484375 L 73.332031 277.484375 L 73.332031 305.816406 L 41.863281 305.816406 Z M 41.863281 277.484375 " clip-rule="nonzero"/></clipPath><clipPath id="79f841f567"><path d="M 57 153 L 222 153 L 222 338 L 57 338 Z M 57 153 " clip-rule="nonzero"/></clipPath><clipPath id="ab5102d9dc"><path d="M 57.597656 309.949219 L 187.957031 153.273438 L 221.066406 180.820312 L 90.707031 337.496094 Z M 57.597656 309.949219 " clip-rule="nonzero"/></clipPath><clipPath id="1ba5f7929e"><path d="M 99 239 L 217 239 L 217 366 L 99 366 Z M 99 239 " clip-rule="nonzero"/></clipPath><clipPath id="0b1c6b64d9"><path d="M 99.710938 335.507812 L 181.875 239.167969 L 216.773438 268.929688 L 134.609375 365.273438 Z M 99.710938 335.507812 " clip-rule="nonzero"/></clipPath><clipPath id="4bc34f90be"><path d="M 166.648438 326.492188 L 201.296875 326.492188 L 201.296875 349.25 L 166.648438 349.25 Z M 166.648438 326.492188 " clip-rule="nonzero"/></clipPath><clipPath id="82344f6b0e"><path d="M 156.113281 347.632812 L 213.660156 347.632812 L 213.660156 369.152344 L 156.113281 369.152344 Z M 156.113281 347.632812 " clip-rule="nonzero"/></clipPath><clipPath id="919c928593"><path d="M 180.664062 6.671875 L 194.085938 6.671875 L 194.085938 153.230469 L 180.664062 153.230469 Z M 180.664062 6.671875 " clip-rule="nonzero"/></clipPath><clipPath id="fcf6ebe180"><path d="M 0.0390625 0 L 374.964844 0 L 374.964844 375 L 0.0390625 375 Z M 0.0390625 0 " clip-rule="nonzero"/></clipPath><clipPath id="38a6b7bf85"><path d="M 180.664062 6.671875 L 194.085938 6.671875 L 194.085938 153.230469 L 180.664062 153.230469 Z M 180.664062 6.671875 " clip-rule="nonzero"/></clipPath></defs><g clip-path="url(#29b2fcfe5a)"><path fill="#297c3b" d="M 11.707031 186.449219 C 11.707031 193.316406 12.101562 200.164062 12.890625 206.988281 L 64.441406 207.125 C 63.308594 200.28125 62.742188 193.386719 62.742188 186.449219 C 62.742188 118.496094 116.839844 63.175781 184.316406 61.210938 L 184.890625 10.148438 C 88.953125 11.832031 11.707031 90.117188 11.707031 186.449219 Z M 11.707031 186.449219 " fill-opacity="1" fill-rule="nonzero"/></g><g clip-path="url(#715c36d5c9)"><path fill="#1b311e" d="M 59.480469 193.648438 C 59.480469 198.984375 59.789062 204.304688 60.402344 209.609375 L 100.457031 209.714844 C 99.578125 204.394531 99.136719 199.039062 99.140625 193.648438 C 99.140625 140.84375 141.171875 97.859375 193.605469 96.332031 L 194.050781 56.652344 C 119.503906 57.960938 59.480469 118.792969 59.480469 193.648438 Z M 59.480469 193.648438 " fill-opacity="1" fill-rule="nonzero"/></g><g clip-path="url(#581fa8eea1)"><path fill="#1b311e" d="M 11.820312 192.511719 L 143.488281 192.511719 L 143.488281 227.660156 L 11.820312 227.660156 Z M 11.820312 192.511719 " fill-opacity="1" fill-rule="nonzero"/></g><g clip-path="url(#1ba07e9cab)"><path fill="#1b311e" d="M 23.199219 234.835938 L 106.679688 234.835938 L 106.679688 269.984375 L 23.199219 269.984375 Z M 23.199219 234.835938 " fill-opacity="1" fill-rule="nonzero"/></g><g clip-path="url(#e6a661ccb0)"><path fill="#297c3b" d="M 261.199219 234.835938 L 352.660156 234.835938 L 352.660156 273.726562 L 261.199219 273.726562 Z M 261.199219 234.835938 " fill-opacity="1" fill-rule="nonzero"/></g><g clip-path="url(#4a271b3e2d)"><path fill="#297c3b" d="M 300.738281 277.484375 L 331.085938 277.484375 L 331.085938 302.222656 L 300.738281 302.222656 Z M 300.738281 277.484375 " fill-opacity="1" fill-rule="nonzero"/></g><g clip-path="url(#9ad219f8c5)"><g clip-path="url(#f08b967c78)"><path fill="#1b311e" d="M 212.625 248.804688 L 268.96875 342.914062 L 225.085938 369.1875 L 168.742188 275.078125 Z M 212.625 248.804688 " fill-opacity="1" fill-rule="nonzero"/></g></g><g clip-path="url(#13115de9d7)"><g clip-path="url(#a6363c0e9b)"><path fill="#297c3b" d="M 178.925781 226.761719 L 216.777344 192.511719 L 320.742188 307.398438 L 282.890625 341.652344 Z M 178.925781 226.761719 " fill-opacity="1" fill-rule="nonzero"/></g></g><g clip-path="url(#e7431bc1d0)"><path fill="#1b311e" d="M 187.378906 106.144531 C 209.878906 106.144531 230.164062 115.253906 244.898438 129.992188 C 259.636719 144.726562 268.746094 165.089844 268.746094 187.511719 C 242.363281 187.511719 132.472656 187.511719 106.011719 187.511719 C 106.011719 165.089844 115.121094 144.726562 129.859375 129.992188 C 144.59375 115.253906 164.957031 106.144531 187.378906 106.144531 Z M 187.378906 106.144531 " fill-opacity="1" fill-rule="nonzero"/></g><g clip-path="url(#628724c0fe)"><path fill="#297c3b" d="M 362.859375 177.4375 C 362.859375 184.261719 362.464844 191.0625 361.679688 197.839844 L 310.472656 197.976562 C 311.601562 191.179688 312.164062 184.332031 312.160156 177.4375 C 312.160156 109.9375 258.421875 54.984375 191.394531 53.03125 L 190.824219 2.308594 C 286.125 3.980469 362.859375 81.746094 362.859375 177.4375 Z M 362.859375 177.4375 " fill-opacity="1" fill-rule="nonzero"/></g><g clip-path="url(#b9229dfff0)"><path fill="#1b311e" d="M 319.285156 198.25 C 319.285156 204.027344 318.953125 209.78125 318.289062 215.519531 L 274.945312 215.636719 C 275.898438 209.878906 276.375 204.085938 276.375 198.25 C 276.375 141.117188 230.890625 94.605469 174.15625 92.953125 L 173.675781 50.019531 C 254.335938 51.433594 319.285156 117.257812 319.285156 198.25 Z M 319.285156 198.25 " fill-opacity="1" fill-rule="nonzero"/></g><g clip-path="url(#2a873cafc0)"><path fill="#297c3b" d="M 233.355469 192.511719 L 362.632812 192.511719 L 362.632812 234.835938 L 233.355469 234.835938 Z M 233.355469 192.511719 " fill-opacity="1" fill-rule="nonzero"/></g><g clip-path="url(#19f6189809)"><path fill="#1b311e" d="M 41.863281 277.484375 L 73.296875 277.484375 L 73.296875 305.816406 L 41.863281 305.816406 Z M 41.863281 277.484375 " fill-opacity="1" fill-rule="nonzero"/></g><g clip-path="url(#79f841f567)"><g clip-path="url(#ab5102d9dc)"><path fill="#297c3b" d="M 57.597656 309.949219 L 187.914062 153.324219 L 221.023438 180.871094 L 90.707031 337.496094 Z M 57.597656 309.949219 " fill-opacity="1" fill-rule="nonzero"/></g></g><g clip-path="url(#1ba5f7929e)"><g clip-path="url(#0b1c6b64d9)"><path fill="#1b311e" d="M 99.710938 335.507812 L 181.910156 239.125 L 216.808594 268.890625 L 134.609375 365.273438 Z M 99.710938 335.507812 " fill-opacity="1" fill-rule="nonzero"/></g></g><g clip-path="url(#4bc34f90be)"><path fill="#297c3b" d="M 166.648438 326.492188 L 201.316406 326.492188 L 201.316406 349.25 L 166.648438 349.25 Z M 166.648438 326.492188 " fill-opacity="1" fill-rule="nonzero"/></g><g clip-path="url(#82344f6b0e)"><path fill="#297c3b" d="M 156.113281 347.632812 L 213.695312 347.632812 L 213.695312 369.152344 L 156.113281 369.152344 Z M 156.113281 347.632812 " fill-opacity="1" fill-rule="nonzero"/></g><g clip-path="url(#919c928593)"><path fill="#b7dfba" d="M 180.664062 6.671875 L 194.085938 6.671875 L 194.085938 153.214844 L 180.664062 153.214844 Z M 180.664062 6.671875 " fill-opacity="1" fill-rule="nonzero"/></g><g clip-path="url(#fcf6ebe180)"><path fill="#efdeba" d="M 278.324219 333.914062 L 224.949219 268.542969 C 224.722656 268.242188 224.496094 267.941406 224.273438 267.71875 L 193.609375 230.15625 L 219.625 198.296875 L 309.8125 308.800781 C 300.367188 318.324219 289.796875 326.71875 278.324219 333.914062 Z M 159.347656 357.53125 L 184.164062 327.09375 L 209.65625 358.355469 C 202.378906 359.332031 194.960938 359.855469 187.386719 359.855469 C 177.867188 359.855469 168.496094 359.03125 159.347656 357.53125 Z M 142.929688 354.007812 C 129.585938 350.410156 116.839844 345.3125 104.996094 338.789062 L 184.011719 242.003906 L 209.203125 272.816406 Z M 265.054688 341.339844 C 252.984375 347.410156 240.089844 352.132812 226.671875 355.28125 L 193.984375 315.171875 L 218.875 284.660156 Z M 65.035156 308.726562 L 187.460938 158.785156 L 210.03125 186.375 L 92.023438 330.917969 C 82.277344 324.472656 73.28125 316.972656 65.035156 308.726562 Z M 187.460938 14.992188 C 280.050781 14.992188 355.769531 88.316406 359.667969 179.929688 L 330.429688 179.929688 C 326.304688 105.855469 264.757812 46.40625 189.9375 45.957031 C 189.636719 45.957031 189.335938 45.957031 189.109375 45.957031 C 151.851562 45.957031 116.617188 60.578125 89.777344 87.113281 C 64.4375 112.230469 49.667969 144.917969 47.71875 179.929688 L 15.257812 179.929688 C 19.15625 88.316406 94.875 14.992188 187.460938 14.992188 Z M 329.757812 284.660156 C 326.679688 289.085938 323.457031 293.429688 320.011719 297.554688 L 309.515625 284.660156 Z M 351.195312 241.480469 C 347.972656 251.300781 343.925781 260.671875 339.050781 269.667969 L 297.371094 269.667969 L 274.351562 241.480469 Z M 323.160156 194.921875 L 359.667969 194.921875 C 359.21875 205.714844 357.71875 216.289062 355.320312 226.484375 L 262.058594 226.484375 L 236.34375 194.921875 Z M 150.875 179.929688 L 107.621094 179.929688 C 113.46875 140.867188 146.828125 110.878906 186.710938 110.28125 C 187.085938 110.28125 187.539062 110.28125 187.914062 110.28125 C 227.871094 110.28125 262.355469 140.644531 268.28125 179.929688 L 223.972656 179.929688 L 193.160156 142.21875 C 190.3125 138.695312 184.386719 138.695312 181.542969 142.21875 Z M 283.425781 179.929688 C 277.277344 131.945312 235.144531 94.6875 186.488281 95.289062 C 138.433594 96.039062 98.546875 132.695312 92.550781 179.929688 L 62.785156 179.929688 C 64.738281 148.964844 77.855469 120.027344 100.347656 97.835938 C 124.339844 74.070312 155.824219 60.953125 189.109375 60.953125 C 189.335938 60.953125 189.636719 60.953125 189.859375 60.953125 C 256.433594 61.324219 311.3125 114.03125 315.4375 179.929688 Z M 112.792969 226.558594 C 112.492188 226.484375 112.195312 226.484375 111.890625 226.484375 L 19.53125 226.484375 C 17.132812 216.289062 15.703125 205.714844 15.179688 194.921875 L 138.582031 194.921875 Z M 77.632812 269.667969 L 35.945312 269.667969 C 31.074219 260.746094 27.027344 251.300781 23.800781 241.480469 L 100.648438 241.480469 Z M 45.167969 284.660156 L 65.410156 284.660156 L 54.914062 297.554688 C 51.46875 293.359375 48.167969 289.085938 45.167969 284.660156 Z M 349.320312 281.8125 C 349.773438 281.214844 350.222656 280.539062 350.523438 279.789062 C 358.167969 266.367188 364.167969 251.898438 368.367188 236.679688 C 368.515625 236.230469 368.664062 235.78125 368.742188 235.328125 C 372.789062 220.035156 374.964844 203.996094 374.964844 187.425781 C 374.886719 84.042969 290.84375 0 187.460938 0 C 84.078125 0 0.0390625 84.042969 0.0390625 187.425781 C 0.0390625 203.996094 2.210938 219.960938 6.261719 235.257812 C 6.332031 235.855469 6.484375 236.382812 6.707031 236.90625 C 10.832031 252.046875 16.828125 266.441406 24.480469 279.789062 C 24.777344 280.539062 25.152344 281.214844 25.675781 281.8125 C 32.351562 293.207031 40.144531 303.855469 48.992188 313.601562 C 49.367188 314.125 49.816406 314.648438 50.34375 315.023438 C 50.417969 315.023438 50.417969 315.097656 50.492188 315.097656 C 61.8125 327.242188 74.632812 337.816406 88.726562 346.660156 C 88.800781 346.734375 88.800781 346.734375 88.875 346.8125 C 89.027344 346.960938 89.25 347.035156 89.476562 347.1875 C 105.894531 357.308594 123.964844 364.953125 143.152344 369.601562 C 143.304688 369.679688 143.457031 369.679688 143.679688 369.75 C 157.773438 373.125 172.46875 375 187.539062 375 C 221.050781 375 252.535156 366.078125 279.824219 350.632812 C 280.425781 350.410156 280.949219 350.109375 281.472656 349.734375 C 281.472656 349.734375 281.472656 349.660156 281.550781 349.660156 C 297.519531 340.363281 312.0625 328.742188 324.582031 315.324219 C 324.65625 315.25 324.65625 315.25 324.734375 315.25 C 325.257812 314.796875 325.707031 314.351562 326.082031 313.824219 C 334.855469 303.855469 342.652344 293.207031 349.320312 281.8125 " fill-opacity="1" fill-rule="nonzero"/></g><g clip-path="url(#38a6b7bf85)"><path fill="#efdeba" d="M 180.664062 6.671875 L 194.085938 6.671875 L 194.085938 153.214844 L 180.664062 153.214844 Z M 180.664062 6.671875 " fill-opacity="1" fill-rule="nonzero"/></g></svg>